<svg width="22" height="23" viewBox="0 0 22 23" fill="none" xmlns="http://www.w3.org/2000/svg">
<path d="M11.7679 10.7221C12.1502 10.8761 12.5181 11.215 12.8715 11.7389C13.267 12.3405 13.6217 12.9681 13.9331 13.6173C14.2865 14.3406 14.6642 15.1104 15.0661 15.9266C15.4601 16.7267 15.9102 17.4979 16.4129 18.2344C16.8877 18.9351 17.4462 19.5753 18.076 20.1408C18.6761 20.6801 19.408 21.0511 20.1978 21.2164C20.4046 21.3103 20.6207 21.3825 20.8425 21.4318C21.0626 21.4783 21.1726 21.5868 21.1726 21.7604C21.1726 21.8751 21.0874 22.0192 20.9138 22.1913C20.5784 22.2834 20.2306 22.3221 19.8831 22.306C19.6909 22.306 19.5003 22.2951 19.3097 22.2765C19.119 22.2579 18.9548 22.2378 18.8215 22.2192C17.1972 21.933 15.8354 21.2737 14.736 20.2415C13.6218 19.1879 12.7635 17.8932 12.2267 16.4567C11.9012 15.845 11.6 15.2142 11.3231 14.5643C11.064 13.948 10.7475 13.3575 10.3777 12.8005C10.0428 12.2972 9.62334 11.8557 9.1378 11.4955C8.63115 11.1396 8.02231 10.9584 7.40348 10.9794C7.02066 10.9794 6.78353 11.0569 6.70138 11.2088C6.61924 11.3607 6.57119 11.6738 6.57119 12.1263V18.0345C6.5497 18.4168 6.61377 18.7991 6.75873 19.1535C6.86766 19.3857 7.04868 19.5765 7.27484 19.6975C7.52175 19.8211 7.78905 19.8988 8.06373 19.9269C8.3737 19.9662 8.71778 20.0235 9.09595 20.0989C9.16959 20.1243 9.24766 20.1344 9.32533 20.1284C9.47043 20.1271 9.61497 20.1464 9.75465 20.1857C9.81721 20.2011 9.87209 20.2386 9.90913 20.2913C9.94617 20.344 9.96287 20.4084 9.95614 20.4724C9.95614 20.7406 9.86004 20.9018 9.66941 20.9591C9.38791 21.0267 9.09855 21.0559 8.80922 21.0459C8.12107 21.0459 7.43293 21.0123 6.74478 20.9452C6.05508 20.8785 5.37778 20.8444 4.70823 20.8444C4.11618 20.8444 3.52722 20.8739 2.94447 20.9312C2.36171 20.9886 1.7743 21.0165 1.18225 21.0165C1.01617 21.0313 0.848934 21.0069 0.694038 20.9452C0.618094 20.8971 0.579346 20.7406 0.579346 20.4724C0.579453 20.4073 0.602498 20.3442 0.64444 20.2944C0.686383 20.2445 0.744544 20.211 0.808728 20.1997C1.00135 20.1434 1.19761 20.1004 1.39613 20.071C1.63482 20.0323 1.889 19.9889 2.15713 19.9408C2.42371 19.8937 2.68045 19.802 2.91657 19.6696C3.18398 19.5286 3.40401 19.3121 3.54924 19.047C3.69448 18.7819 3.75851 18.4799 3.73336 18.1786V12.2705C3.73336 10.6462 3.74782 9.0307 3.77675 7.42399C3.80568 5.81728 3.82015 4.2023 3.82015 2.57906C3.8386 2.26582 3.75838 1.95469 3.59077 1.68943C3.44415 1.48481 3.23873 1.32966 3.00181 1.24461C2.75698 1.15832 2.50143 1.10617 2.24237 1.08962C1.97424 1.07102 1.72161 1.05087 1.48293 1.03227C1.28277 1.02136 1.08509 0.982764 0.895523 0.917584C0.824128 0.894444 0.762634 0.84788 0.721003 0.785433C0.679372 0.722986 0.660039 0.648313 0.666139 0.57351C0.666139 0.30538 0.765332 0.147292 0.966816 0.0992458C1.17005 0.0517624 1.37807 0.0278401 1.58677 0.0279514C1.796 0.0279514 2.01144 0.0388003 2.23152 0.0573989C2.4516 0.0759975 2.66549 0.0852968 2.87627 0.0852968H5.37158C6.09486 0.0852968 6.82589 0.0708315 7.56466 0.0419003C8.30344 0.0129692 9.03447 -0.000979811 9.75775 5.3444e-05C10.443 0.00614033 11.1254 0.0877436 11.7927 0.243385C12.5222 0.406984 13.2136 0.708984 13.8293 1.13302C14.4798 1.58413 15.0193 2.17716 15.4071 2.86734C15.8266 3.59061 16.0368 4.51744 16.0379 5.64782C16.042 6.23839 15.9093 6.8219 15.6504 7.35269C15.3932 7.87629 15.0542 8.35554 14.6461 8.77239C14.2314 9.19613 13.7696 9.57105 13.2698 9.88985C12.789 10.2017 12.2872 10.4797 11.7679 10.7221ZM13.1163 5.56103C13.1316 4.87089 13.0044 4.18501 12.7428 3.54618C12.5116 2.99596 12.1642 2.50217 11.7245 2.09859C11.2811 1.69863 10.759 1.39562 10.1917 1.20896C9.56271 1.00239 8.90398 0.900806 8.24196 0.908284C7.57241 0.908284 7.13277 1.02763 6.92302 1.26631C6.71326 1.50499 6.60994 1.85371 6.61304 2.31248V3.2951C6.61304 4.06075 6.60322 4.92093 6.58359 5.87566C6.56396 6.83038 6.55466 7.69057 6.55569 8.45621C6.55569 8.74294 6.55569 8.98782 6.54175 9.18775C6.52759 9.35728 6.54708 9.52794 6.59909 9.68992C6.625 9.75847 6.66649 9.82005 6.72028 9.86981C6.77408 9.91958 6.83871 9.95615 6.90907 9.97665C7.15679 10.0443 7.41351 10.073 7.67006 10.0619C8.3908 10.0657 9.11037 10.0034 9.81975 9.8759C10.4411 9.77209 11.0333 9.53753 11.5572 9.18775C12.0558 8.83998 12.4519 8.36466 12.7041 7.81146C12.9789 7.2287 13.1163 6.47856 13.1163 5.56103Z" fill="white"/>
</svg>
