<svg width="11" height="15" viewBox="0 0 11 15" fill="none" xmlns="http://www.w3.org/2000/svg">
<path d="M10.8601 5.15577C10.8708 5.35353 10.8313 5.55077 10.7454 5.72922C10.6443 5.74634 10.5424 5.75823 10.4401 5.76487C10.3397 5.77521 10.2388 5.78039 10.1379 5.78037H3.00068C2.90268 5.78425 2.80591 5.8036 2.71396 5.83772C2.65661 5.83772 2.61786 5.91366 2.59927 6.0671C2.57916 6.22126 2.56932 6.37659 2.56982 6.53206V6.76144C2.58582 7.51436 2.67826 8.2637 2.8457 8.99793C2.9903 9.66167 3.25787 10.2925 3.63459 10.8578C3.99895 11.3956 4.49171 11.834 5.06823 12.1333C5.66028 12.4495 6.39596 12.6076 7.27526 12.6076C7.59767 12.6111 7.91962 12.582 8.23619 12.5208C8.50397 12.4668 8.76419 12.3804 9.01113 12.2635C9.26202 12.1412 9.50163 11.9971 9.72717 11.8327C9.96585 11.6611 10.2288 11.47 10.5161 11.2592C10.5891 11.2314 10.6679 11.2219 10.7454 11.2313C10.8787 11.2313 10.9454 11.2887 10.9454 11.4033C10.9298 11.5395 10.8761 11.6684 10.7904 11.7753C10.6799 11.9373 10.5598 12.0926 10.4308 12.2403C10.2999 12.391 10.1613 12.5348 10.0155 12.6711C9.87286 12.8044 9.76127 12.9005 9.68533 12.9579C9.1733 13.406 8.59239 13.7687 7.96496 14.0319C7.33242 14.2656 6.66143 14.3776 5.98731 14.3621C5.16945 14.3814 4.35717 14.2227 3.60669 13.8971C2.93331 13.5926 2.33612 13.142 1.85842 12.5782C1.37353 11.9997 1.00512 11.3329 0.773505 10.6145C0.515571 9.83337 0.37812 9.01756 0.365885 8.19509C0.347761 7.28003 0.43408 6.36589 0.623166 5.47039C0.797409 4.5965 1.11754 3.75818 1.57014 2.99058C2.00308 2.26195 2.5988 1.64341 3.31066 1.18342C4.02671 0.715355 4.89154 0.481323 5.90516 0.481323C7.05208 0.481323 8.03367 0.72517 8.84994 1.21287C9.66621 1.70056 10.2443 2.51787 10.5843 3.66478C10.6593 3.90983 10.7214 4.15867 10.7702 4.41027C10.8139 4.65694 10.8439 4.90581 10.8601 5.15577ZM8.47952 3.75002C8.47915 3.42276 8.40554 3.09972 8.26408 2.8046C8.12661 2.50634 7.93774 2.23459 7.70613 2.00176C7.4782 1.77384 7.21094 1.58901 6.91724 1.4562C6.63378 1.32577 6.32568 1.25759 6.01366 1.25626C5.60333 1.25868 5.19988 1.36193 4.83884 1.55694C4.45576 1.75812 4.11108 2.02516 3.82057 2.34583C3.52485 2.67058 3.28734 3.04388 3.11848 3.44935C2.95165 3.83404 2.86364 4.24827 2.85965 4.66755C2.85965 4.74505 2.92164 4.79619 3.04563 4.82254C3.18734 4.85399 3.3315 4.87318 3.4765 4.87989C3.63393 4.88919 3.79178 4.88919 3.94921 4.87989C4.1042 4.87059 4.19719 4.86594 4.23594 4.86594C4.77013 4.86594 5.21495 4.87059 5.57039 4.87989C5.92583 4.88919 6.36083 4.87421 6.87539 4.83494C7.10477 4.81634 7.31556 4.79774 7.50619 4.7776C7.67813 4.76308 7.84717 4.72448 8.00835 4.66291C8.15311 4.60344 8.2741 4.49771 8.35243 4.36223C8.44816 4.17298 8.49202 3.96174 8.47952 3.75002Z" fill="white"/>
</svg>
