<svg width="28" height="36" viewBox="0 0 28 36" fill="none" xmlns="http://www.w3.org/2000/svg">
<path d="M24.1021 21.6992L26.6107 19.722L26.5965 16.526L27.9926 13.6488L26.6036 10.7717L26.6178 7.57559L24.1091 5.59134L22.7343 2.70709L19.6162 2.00551L17.1217 0L14.0036 0.729921L10.8926 0L8.39812 2.00551L5.28001 2.70709L3.90521 5.59134L1.38946 7.57559L1.40363 10.7717L0.00756836 13.6488L1.40363 16.526L1.38946 19.722L3.89812 21.7063L4.90442 23.8252L0.829616 32.563L5.6556 31.826L8.19261 36L12.4162 26.9362L13.9965 26.5677L15.2438 26.8583L19.5099 36L22.0469 31.826L26.8729 32.563L22.9399 24.1299L24.1021 21.6992ZM8.05796 33.5409L6.24379 30.5575L2.79969 31.0819L5.77607 24.6898L8.39812 25.278L10.8926 27.2835L8.05796 33.5409ZM14.0036 25.3701L11.1761 26.0362L8.91544 24.215L6.0808 23.5772L4.83355 20.9551L2.55166 19.1551L2.56584 16.2496L1.29733 13.6417L2.56584 11.0268L2.55166 8.12126L4.83355 6.32126L6.0808 3.69921L8.91544 3.06142L11.1761 1.24016L14.0036 1.89921L16.8312 1.24016L19.0918 3.06142L21.9265 3.69921L23.1737 6.32126L25.4556 8.12126L25.4414 11.0268L26.7099 13.6346L25.4414 16.2425L25.4556 19.148L23.1737 20.948L21.9265 23.5701L19.0918 24.2079L16.8312 26.0291L14.0036 25.3701ZM24.9028 31.089L21.4588 30.5646L19.6446 33.5409L16.6824 27.1913L17.1147 27.2906L19.6091 25.285L21.9548 24.7606L24.9028 31.089Z" fill="#014561"/>
</svg>
